PathFileType	4	(X/Y/Z)	\\147.46.242.158\로컬 디스크 (e)\MOCAP Data\Iguana Capture\iguana\Project 2\Capture day 7\Session 2\Take06.trc
DataRate	CameraRate	NumFrames	NumMarkers	Units	OrigDataRate	OrigDataStartFrame	OrigNumFrames
120.0	120.0	12	23	mm	120.0	73	14620
Frame#	Time	ana:head1			ana:head2			ana:bone1			ana:bone2			ana:bone3			ana:tail1			ana:tail2			ana:tail3			ana:tail4			ana:Rforefoot1			ana:Rforefoot2			ana:Rforefoot3			ana:Lforefoot1			ana:Lforefoot2			ana:Lforefoot3			ana:RhindLeg1			ana:RhindLeg2			ana:RhindLeg3			ana:RhindLeg4			ana:LhindLeg1			ana:LhindLeg2			ana:LhindLeg3			ana:LhindLeg4			
		X1	Y1	Z1	X2	Y2	Z2	X3	Y3	Z3	X4	Y4	Z4	X5	Y5	Z5	X6	Y6	Z6	X7	Y7	Z7	X8	Y8	Z8	X9	Y9	Z9	X10	Y10	Z10	X11	Y11	Z11	X12	Y12	Z12	X13	Y13	Z13	X14	Y14	Z14	X15	Y15	Z15	X16	Y16	Z16	X17	Y17	Z17	X18	Y18	Z18	X19	Y19	Z19	X20	Y20	Z20	X21	Y21	Z21	X22	Y22	Z22	X23	Y23	Z23	

9535	79.450	172.06464	-281.18826	87.84214	161.83969	-284.16696	88.47884	139.97174	-289.58832	78.45530	114.21392	-297.18744	66.32973	87.21854	-312.72031	54.47024	68.48622	-336.27591	45.30704	40.25567	-356.07315	34.35527	4.28471	-376.86917	19.57058	-32.28945	-387.69641	8.69348	153.60674	-295.91031	62.66607	155.28471	-310.79294	57.94403	170.98056	-307.04773	52.31182	143.26256	-275.26083	65.72194	138.07529	-263.57068	65.46944	150.71985	-253.32994	57.53958	97.03096	-317.30630	46.55012	115.22551	-321.38022	43.78261	115.49832	-328.33246	24.79588	125.28373	-324.23199	25.16551	80.40450	-306.57126	46.36507	66.84506	-299.31894	40.96262	51.78700	-313.63431	29.29015	42.58375	-312.14066	21.04200	
9536	79.458	181.63507	-274.64871	88.22372	171.43010	-277.71832	88.83102	149.92400	-283.63852	78.59853	124.44115	-292.23215	66.65465	97.35810	-307.62097	54.68273	78.58539	-330.76807	45.21173	51.92072	-352.83414	34.83866	18.74073	-377.99295	19.99765	-15.53509	-393.59647	8.09182	163.46127	-289.40121	62.76139	165.68332	-304.03036	57.86587	181.14108	-299.21371	52.88747	152.67186	-268.49734	66.00450	148.85251	-256.69617	64.67709	161.86610	-247.14975	56.76480	107.12608	-311.74414	45.87560	125.42219	-314.81735	41.06903	127.53883	-320.49500	21.01764	136.96066	-314.54382	21.26192	90.57002	-300.72958	47.51741	78.69793	-291.05798	44.42497	64.48940	-304.57513	31.69078	55.32677	-301.37775	25.37199	
9537	79.467	191.06929	-267.73880	88.10689	180.89735	-270.81522	88.60406	159.80632	-277.39725	78.11652	134.82211	-287.36758	66.42551	107.71799	-302.79395	54.34092	88.35573	-325.05869	44.65453	63.31536	-349.07245	34.76233	33.36970	-378.08771	19.92084	1.56292	-397.98303	7.65578	173.40388	-282.40005	62.21775	176.64928	-296.50980	57.08190	191.67470	-290.41986	53.10941	161.53543	-261.41736	65.84586	159.49928	-249.68971	63.03850	172.79530	-240.81604	54.92007	117.08382	-306.76782	44.64828	134.64929	-309.96573	37.59669	136.10773	-314.11615	17.11475	144.98041	-307.35394	16.68862	101.03954	-295.17020	48.28341	91.76981	-283.04504	47.78505	77.71349	-294.08173	34.27956	69.77425	-288.71487	30.36550	
9538	79.475	200.33299	-260.42383	87.43928	190.18129	-263.47147	87.77024	169.50278	-270.79480	77.10171	145.22209	-282.35223	65.74952	118.17474	-297.99860	53.68545	97.75413	-319.17950	43.99182	74.29750	-344.73227	34.39439	47.95178	-377.01309	19.54518	18.77861	-400.69824	7.36058	183.37988	-274.99615	61.20545	188.16760	-288.28259	55.94101	202.53400	-280.80154	53.11290	170.11650	-254.13608	65.12086	170.01247	-242.68779	60.62121	183.50587	-234.41879	52.24720	126.85594	-302.25497	43.19956	142.97058	-306.62662	34.00656	141.48706	-309.64963	14.02781	149.71548	-302.72937	12.31805	111.86831	-289.77829	48.48286	105.71807	-275.63596	50.61409	91.25211	-282.29358	36.97140	85.76196	-274.76584	35.52983	
9539	79.483	209.42009	-252.76564	86.26750	199.27759	-255.81688	86.48440	178.96611	-263.80267	75.64403	155.48196	-276.97079	64.81882	128.55849	-293.08606	52.96741	106.83392	-313.06833	43.49973	84.75362	-339.75052	34.04039	62.19370	-374.71118	19.16563	35.88172	-401.72473	7.23712	193.33318	-267.31650	59.87038	199.99527	-279.42523	54.55347	213.55222	-270.61649	52.81950	178.77051	-246.78879	63.59359	180.28345	-235.75516	57.67932	193.99088	-228.04250	49.14410	136.38240	-298.00543	41.93494	150.51126	-304.39102	31.11292	144.86378	-307.13925	12.38773	152.31538	-300.27844	9.12858	122.87370	-284.43289	48.21148	120.04935	-268.93069	52.48468	105.20161	-269.70126	39.32387	103.13472	-260.61261	39.99626	
9540	79.492	218.31929	-244.86687	84.72754	208.17816	-247.80621	84.77221	188.24629	-256.50302	73.90271	165.52739	-271.04376	63.71715	138.76184	-287.85397	52.41520	115.65542	-306.66107	43.43007	94.55544	-334.16107	34.11523	75.75153	-371.27258	19.16776	52.76655	-401.06317	7.24380	203.19604	-259.49146	58.30954	211.85100	-270.15118	53.08774	224.50829	-260.28058	52.09789	187.88870	-239.47603	61.17100	190.46672	-228.95561	54.28659	204.50874	-221.81073	45.87218	145.65483	-293.79727	41.24216	157.52888	-302.71515	29.47873	147.56453	-305.94208	12.56256	153.95229	-299.26062	7.66418	133.78101	-279.03558	47.75818	134.19530	-262.79309	53.13718	119.69205	-257.17093	40.77719	121.44071	-247.41280	42.81522	
9541	79.500	227.09126	-236.75797	82.74496	216.96935	-239.59874	82.64931	197.38681	-248.94640	71.87680	175.30887	-264.62604	62.59537	148.57825	-282.38174	52.27218	124.26835	-300.06061	43.95885	103.69015	-328.02783	34.87166	88.37231	-366.83368	19.87758	69.10036	-398.82281	7.56715	212.94980	-251.64478	56.56336	223.39124	-260.66934	51.54010	235.11475	-250.01099	50.65601	197.40536	-232.32697	58.07322	200.62254	-222.18329	50.64560	215.04144	-215.75946	42.46667	154.72090	-289.39365	41.25153	164.33789	-300.94974	29.44084	150.73521	-305.19608	14.54187	155.76497	-298.90277	8.02621	144.28564	-273.48605	47.37057	147.57559	-256.88116	52.55672	134.56592	-245.56967	40.78304	139.93564	-235.94115	43.22116	
9542	79.508	235.82547	-228.56453	80.39568	225.69908	-231.33539	80.18555	206.49454	-241.18491	69.54221	184.88733	-257.77408	61.40886	158.16742	-276.42334	52.31345	132.85457	-293.26038	44.90333	112.29219	-321.43018	36.34456	99.83169	-361.55917	21.56241	84.49253	-395.24799	8.47365	222.61017	-243.84802	54.56234	234.47615	-251.24904	49.67257	245.36609	-240.15059	48.29256	206.89658	-225.24905	54.61668	210.67122	-215.51395	46.69709	225.46623	-209.73636	38.68895	163.66528	-284.57602	41.92174	171.33699	-298.55789	30.92974	155.31923	-304.31769	17.84294	158.87390	-298.79376	9.77327	154.34801	-267.66428	47.00818	159.86839	-250.87714	50.87185	149.48882	-235.50978	38.94369	157.67786	-226.55643	40.75916	
9543	79.517	244.64891	-220.40100	77.54693	234.53423	-223.21524	77.32787	215.69363	-233.40005	66.84471	194.36037	-250.59633	60.04274	167.53897	-270.06992	52.43896	141.58061	-286.37704	46.02373	120.54984	-314.55765	38.46883	110.05811	-355.63077	24.24234	98.53986	-390.62775	10.34815	232.22018	-236.24483	52.16726	245.00153	-242.23199	47.24498	254.99533	-230.79720	44.71306	216.28119	-218.24342	50.90117	220.56601	-209.00542	42.40151	235.44746	-203.62552	34.27699	172.63319	-279.21576	42.95562	179.08043	-295.02747	33.39429	161.82324	-302.73178	21.82003	163.99294	-298.42517	12.15348	163.90701	-261.55811	46.61869	170.86093	-244.63339	48.25747	163.52660	-227.32780	35.14563	173.36087	-219.10037	35.61988	
9544	79.525	253.64769	-212.48981	74.27889	243.58080	-215.50468	74.11171	225.07301	-225.73314	63.68860	203.83548	-243.25401	58.32346	176.90573	-263.30737	52.22157	150.59998	-279.51630	47.00877	128.76340	-307.51114	40.89795	119.12654	-349.21371	27.77683	110.88686	-385.24197	13.45087	241.79849	-228.88992	49.19743	254.88191	-233.73967	43.83088	263.99753	-222.12030	39.71511	225.48158	-211.30595	47.12499	230.05450	-202.54953	37.84306	244.60316	-197.29361	29.13946	181.76659	-273.22498	43.86002	187.83824	-290.24060	36.13738	170.05602	-299.82639	25.65462	171.23946	-297.19568	14.80424	173.26019	-255.14844	45.85220	180.56116	-238.16420	44.90379	175.52464	-221.18700	29.96065	185.91646	-213.54335	28.60549	
9545	79.533	262.92960	-205.04167	70.65828	252.90710	-208.36276	70.56670	234.68208	-218.35936	60.06851	213.39380	-235.90765	56.13634	186.23488	-256.32773	51.57592	159.93962	-272.82761	47.66592	137.11694	-300.46997	43.38136	127.19167	-342.48315	31.96232	121.27733	-379.32526	17.92631	251.36653	-221.83382	45.48067	264.20053	-225.80386	39.17426	272.32739	-214.04749	33.33443	234.35083	-204.48479	43.40585	238.92776	-196.04715	33.36103	252.70882	-190.63445	23.59577	191.17149	-266.62943	44.26980	197.76266	-284.15527	38.67091	179.85640	-295.12976	28.90010	180.94290	-294.54123	17.55942	182.45920	-248.58891	44.57890	189.08940	-231.59309	41.16075	184.71359	-216.91232	24.26284	194.93150	-209.53798	21.18233	
9546	79.542	272.54120	-198.22481	66.72686	262.50162	-201.70380	66.61761	244.47952	-211.39711	56.07503	223.05334	-228.74312	53.47275	195.83054	-249.24754	50.28112	169.61630	-266.48541	47.99175	145.77945	-293.55405	45.70995	134.46883	-335.55145	36.57507	129.66591	-373.03217	23.61005	260.75418	-215.34822	41.07700	272.80090	-218.95596	33.51235	279.84042	-207.02757	26.16103	243.18703	-197.96638	39.82859	246.99422	-189.54314	29.64176	259.42181	-184.05963	18.52170	200.85727	-259.70148	43.99634	208.80408	-276.87512	40.43714	191.03569	-288.51120	31.02545	192.94904	-290.07516	20.11050	191.46208	-242.09622	42.95064	196.61105	-225.09637	37.39849	191.05690	-214.16299	19.27991	200.65338	-206.83626	14.61129	
